<svg id="Layer_1" data-name="Layer 1" xmlns="http://www.w3.org/2000/svg" xmlns:xlink="http://www.w3.org/1999/xlink" viewBox="0 0 756.64 385.28"><defs><style>.cls-1{fill:#72c09c;}.cls-10,.cls-11,.cls-2,.cls-3,.cls-4,.cls-5,.cls-6,.cls-7,.cls-8,.cls-9{fill-rule:evenodd;}.cls-2{fill:url(#linear-gradient);}.cls-3{fill:url(#linear-gradient-2);}.cls-4{fill:#229987;}.cls-5{fill:#0b694b;}.cls-6{fill:#63c0b7;}.cls-7{fill:url(#linear-gradient-3);}.cls-8{fill:url(#linear-gradient-4);}.cls-9{fill:url(#linear-gradient-5);}.cls-10{fill:url(#linear-gradient-6);}.cls-11{fill:#369b7f;}</style><linearGradient id="linear-gradient" x1="832.81" y1="455.64" x2="577.59" y2="580.6" gradientUnits="userSpaceOnUse"><stop offset="0" stop-color="#00947f"/><stop offset="1" stop-color="#42b6a5"/></linearGradient><linearGradient id="linear-gradient-2" x1="817.75" y1="533.72" x2="874.94" y2="587.73" xlink:href="#linear-gradient"/><linearGradient id="linear-gradient-3" x1="295.11" y1="184.87" x2="-292.62" y2="148.33" xlink:href="#linear-gradient"/><linearGradient id="linear-gradient-4" x1="1046.84" y1="549.29" x2="1512.79" y2="420.09" gradientUnits="userSpaceOnUse"><stop offset="0" stop-color="#00947f"/><stop offset="0.95" stop-color="#40b6a5"/><stop offset="1" stop-color="#42b6a5"/></linearGradient><linearGradient id="linear-gradient-5" x1="436.21" y1="284.83" x2="1183.85" y2="-14.87" xlink:href="#linear-gradient-4"/><linearGradient id="linear-gradient-6" x1="1025.21" y1="556.8" x2="932.02" y2="575.87" xlink:href="#linear-gradient"/></defs><title>Vector</title><path class="cls-1" d="M786.68,495.49q1.13-11,2-23.32t1.26-19.61l-13.46.12H766.36l-46.42.74.37-3.82c.08-.9.21-3.58.37-8l1-23.43q.12-3.21.12-6.79,12.57-15.17,29-37.81t31.36-46.44q19,.25,34.2.25,14.32,0,29.38-.25-2.07,26.16-3.23,51.13t-1.28,37.81q5.91.24,13.91.24c4.19,0,6.61,0,7.26-.06l4.81-.31q-.5,14.81-.5,31.21v5.8q-7.38-.49-21.8-.49l-5,.12q-1,12-1,42.93-12.23-.25-25.29-.25Q801.35,495.24,786.68,495.49ZM797,417.9l2.66-55.68q-8.18,12.72-13.37,20.25t-7.54,10.74L760.78,417.9Z" transform="translate(-579.07 -323.9)"/><path class="cls-1" d="M962,323.9q19.86,0,35.83,7.77t24.92,26.59q8.94,18.81,8.94,44.34a146.7,146.7,0,0,1-5.48,39.6q-5.49,19.6-14.93,31.52a61.84,61.84,0,0,1-24.86,18.44,83.43,83.43,0,0,1-32.93,6.53,80.36,80.36,0,0,1-28-4.81,57.48,57.48,0,0,1-23-15.66,60.77,60.77,0,0,1-13.81-25.72,123.42,123.42,0,0,1-4-31.76,149.44,149.44,0,0,1,5.49-40.22q5.49-19.72,15.36-32.19a59.12,59.12,0,0,1,24.79-18.44A84.07,84.07,0,0,1,962,323.9Zm-.86,36.52a16.72,16.72,0,0,0-10.36,3.45A28.21,28.21,0,0,0,942,375.34a83.18,83.18,0,0,0-5.92,20.11,156.49,156.49,0,0,0-2.22,27.38q0,13.08,2.46,21.65t7.47,13.26a16.47,16.47,0,0,0,11.65,4.69,17.23,17.23,0,0,0,7.22-1.6q3.51-1.6,7.4-6.42t6.85-13.81a107.2,107.2,0,0,0,4.31-18.82,144.16,144.16,0,0,0,1.36-19.92q0-21-5.8-31.21T961.1,360.42Z" transform="translate(-579.07 -323.9)"/><path class="cls-1" d="M1115.78,495.49q1.13-11,2-23.32t1.26-19.61l-13.46.12h-10.12l-46.42.74.37-3.82c.08-.9.2-3.58.37-8l1-23.43q.13-3.21.13-6.79,12.57-15.17,29-37.81t31.37-46.44q19,.25,34.2.25,14.31,0,29.38-.25-2.08,26.16-3.24,51.13t-1.28,37.81q5.91.24,13.92.24c4.18,0,6.6,0,7.26-.06l4.8-.31q-.49,14.81-.49,31.21v5.8q-7.39-.49-21.8-.49l-5,.12q-1,12-1,42.93-12.21-.25-25.28-.25Q1130.46,495.24,1115.78,495.49Zm10.3-77.59,2.65-55.68q-8.16,12.72-13.36,20.25t-7.54,10.74l-17.94,24.69Z" transform="translate(-579.07 -323.9)"/><path class="cls-2" d="M643.06,560.38c21.33,0,39-6.85,53.5-20.66,17.36-16.52,27.41-40,37.13-62.71,11-25.67,21.36-49.92,40.31-56,8.35-2.67,15.94-1.77,23.21,2.76,32,19.89,44.1,99.11,44.21,99.9l10.81-1.6c-.52-3.46-13-85-49.24-107.58-10-6.23-20.89-7.54-32.32-3.88-23.7,7.59-35,34.06-47,62.09-18.64,43.55-37.91,88.59-105,73.87l-32.45-10.5a5.46,5.46,0,1,0-3.36,10.39l33.19,10.72A125.53,125.53,0,0,0,643.06,560.38Z" transform="translate(-579.07 -323.9)"/><path class="cls-3" d="M827.65,614.33,816,558a38.81,38.81,0,0,1,75.56-17.64L905.86,595Z" transform="translate(-579.07 -323.9)"/><path class="cls-4" d="M827.67,615.82c1.25,5.19,20,5.12,41.87-.15s38.59-13.74,37.34-18.93-20-5.12-41.87.15S826.43,610.63,827.67,615.82Z" transform="translate(-579.07 -323.9)"/><path class="cls-5" d="M874.9,600.53c-.32,1.75,2.81,3.77,7,4.52s7.81-.06,8.12-1.81-2.81-3.78-7-4.53S875.21,598.78,874.9,600.53Z" transform="translate(-579.07 -323.9)"/><path class="cls-5" d="M847.34,609c-.32,1.75,2.81,3.77,7,4.52s7.81-.06,8.12-1.81-2.81-3.77-7-4.52S847.65,607.23,847.34,609Z" transform="translate(-579.07 -323.9)"/><path class="cls-6" d="M862.68,519.74s16.86,6.13,22.22,23.76,10,40.25,10,40.25l-15.33.38Z" transform="translate(-579.07 -323.9)"/><polygon class="cls-7" points="268.75 175.86 260.61 190.09 271.34 187.6 268.75 175.86"/><path class="cls-8" d="M1335.72,462l-4.35,9.65c-.75-.34-18.68-8.66-35.15-38-4.76-8.47-12.06-18.38-19.8-17.47-5.56.66-20.29,8.55-37,67.52C1221.11,548,1182,590,1123.24,608.6c-38.06,12-85.12-13.63-87.1-14.73l5.12-9.26c.59.32,45.15,24.51,78.79,13.89,55.19-17.42,91.91-57,109.14-117.68,13.79-48.53,28.83-73.11,46-75.13,10.87-1.28,21,6.39,30.27,22.79,14.78,26.3,30.11,33.43,30.27,33.5ZM1041.26,584.61h0l-2.56,4.64,2.56-4.63Z" transform="translate(-579.07 -323.9)"/><path class="cls-5" d="M943,546.08l27.89,20.21a5.21,5.21,0,1,1-6.12,8.44l-27.89-20.21a5.21,5.21,0,0,1,6.12-8.44Z" transform="translate(-579.07 -323.9)"/><path class="cls-5" d="M964.52,515.12l27.89,20.21a5.21,5.21,0,1,1-6.11,8.44l-27.89-20.21a5.21,5.21,0,0,1,6.11-8.44Z" transform="translate(-579.07 -323.9)"/><polygon class="cls-9" points="483.03 271.64 465.72 274.22 470.51 264.57 486.88 271.02 483.03 271.64"/><path class="cls-10" d="M945.13,575l48.25,31.37a38.82,38.82,0,0,0,44-64l-45.71-33.2Z" transform="translate(-579.07 -323.9)"/><path class="cls-6" d="M961.31,577.3l11.11-15,57,41a35.27,35.27,0,0,1-29.38-.83C984.3,594.83,961.31,577.3,961.31,577.3Z" transform="translate(-579.07 -323.9)"/><path class="cls-11" d="M766.87,702.66c6.87,0,10.2-3.43,10.2-7.44,0-8.83-14-5.77-14-10.2,0-1.52,1.27-2.75,4.56-2.75a13.55,13.55,0,0,1,6.66,1.88l1.72-4.22a16.09,16.09,0,0,0-8.34-2.13c-6.84,0-10.13,3.4-10.13,7.49,0,8.93,14,5.84,14,10.34,0,1.47-1.34,2.57-4.63,2.57a14.15,14.15,0,0,1-7.93-2.5l-1.89,4.18C759.22,701.53,763.06,702.66,766.87,702.66Z" transform="translate(-579.07 -323.9)"/><path class="cls-11" d="M789.29,702.52c5.87,0,10.13-3.95,10.13-9.51s-4.26-9.51-10.13-9.51-10.16,4-10.16,9.51,4.29,9.51,10.16,9.51Zm0-4.39c-2.67,0-4.73-1.92-4.73-5.12s2.06-5.11,4.73-5.11S794,689.82,794,693,792,698.13,789.29,698.13Z" transform="translate(-579.07 -323.9)"/><path class="cls-11" d="M808.11,686.21v-2.43H803v18.47h5.36v-8.72c0-3.54,2-5.15,4.91-5.15.41,0,.75,0,1.2.07v-5C811.61,683.5,809.41,684.43,808.11,686.21Z" transform="translate(-579.07 -323.9)"/><path class="cls-11" d="M822.77,686.21v-2.43h-5.12v18.47H823v-8.72c0-3.54,2-5.15,4.91-5.15.41,0,.76,0,1.2.07v-5C826.27,683.5,824.07,684.43,822.77,686.21Z" transform="translate(-579.07 -323.9)"/><path class="cls-11" d="M846.15,683.78l-5.22,12.53-5.18-12.53h-5.53l8,18.61-.07.17c-.72,1.65-1.54,2.3-3,2.3a4.75,4.75,0,0,1-3-1.17l-2,3.81a8.16,8.16,0,0,0,5.15,1.68c3.33,0,5.87-1.34,7.66-5.8l8.34-19.6Z" transform="translate(-579.07 -323.9)"/><path class="cls-11" d="M854.46,695.86a3.18,3.18,0,0,0-3.33,3.3,3,3,0,0,0,1.85,2.92l-1.51,5.46h3.4l2-4.95a8,8,0,0,0,.93-3.43A3.16,3.16,0,0,0,854.46,695.86Z" transform="translate(-579.07 -323.9)"/><path class="cls-11" d="M881.89,678.21h-10.4v24h5.56v-6.63h4.84c6.42,0,10.44-3.33,10.44-8.68s-4-8.73-10.44-8.73Zm-.3,12.88h-4.54v-8.34h4.54c3.39,0,5.11,1.54,5.11,4.19S885,691.09,881.59,691.09Z" transform="translate(-579.07 -323.9)"/><path class="cls-11" d="M903.18,683.5a14.19,14.19,0,0,0-8,2.23l1.92,3.75a8.84,8.84,0,0,1,5.32-1.72c2.88,0,4.26,1.34,4.26,3.64h-4.26c-5.63,0-7.93,2.26-7.93,5.53s2.57,5.59,6.9,5.59c2.71,0,4.64-.89,5.63-2.57v2.3h5V691.71c0-5.6-3.26-8.21-8.89-8.21Zm-.41,15.42c-1.89,0-3-.9-3-2.23s.79-2.17,3.29-2.17h3.68v1.89A4,4,0,0,1,902.77,698.92Z" transform="translate(-579.07 -323.9)"/><path class="cls-11" d="M931.1,683.78v2.37A7.42,7.42,0,0,0,925,683.5c-5.11,0-9.23,3.54-9.23,8.93s4.12,8.93,9.23,8.93a7.59,7.59,0,0,0,5.84-2.31v.79c0,3.34-1.65,5-5.42,5a11.06,11.06,0,0,1-6.53-2.09l-2.13,3.84c2.17,1.69,5.57,2.54,9.07,2.54,6.66,0,10.37-3.15,10.37-10V683.78ZM926.05,697c-2.82,0-4.88-1.82-4.88-4.53s2.06-4.53,4.88-4.53,4.84,1.82,4.84,4.53S928.86,697,926.05,697Z" transform="translate(-579.07 -323.9)"/><path class="cls-11" d="M959.25,693.08c0-5.94-4.19-9.58-9.61-9.58-5.63,0-9.86,4-9.86,9.51s4.16,9.51,10.54,9.51c3.33,0,5.91-1,7.63-3l-2.85-3.09a6.27,6.27,0,0,1-4.64,1.78c-2.81,0-4.77-1.41-5.29-3.71h14c0-.44.1-1,.1-1.44Zm-9.58-5.53a4.38,4.38,0,0,1,4.53,3.85h-9.1A4.38,4.38,0,0,1,949.67,687.55Z" transform="translate(-579.07 -323.9)"/><polygon class="cls-11" points="410.39 354.31 410.39 368.9 398.44 354.31 393.84 354.31 393.84 378.35 399.33 378.35 399.33 363.75 411.32 378.35 415.88 378.35 415.88 354.31 410.39 354.31"/><path class="cls-11" d="M1009.07,702.52c5.87,0,10.13-3.95,10.13-9.51s-4.26-9.51-10.13-9.51-10.16,4-10.16,9.51,4.29,9.51,10.16,9.51Zm0-4.39c-2.68,0-4.74-1.92-4.74-5.12s2.06-5.11,4.74-5.11,4.7,1.92,4.7,5.11S1011.75,698.13,1009.07,698.13Z" transform="translate(-579.07 -323.9)"/><path class="cls-11" d="M1033.24,697.58a3.64,3.64,0,0,1-2.16.69,2.16,2.16,0,0,1-2.3-2.44v-7.52h4.6v-4.12h-4.6v-4.5h-5.36v4.5h-2.85v4.12h2.85v7.59c0,4.39,2.54,6.62,6.9,6.62a7.62,7.62,0,0,0,4.36-1.16Z" transform="translate(-579.07 -323.9)"/><polygon class="cls-11" points="486.89 358.77 486.89 354.31 468.73 354.31 468.73 378.35 474.29 378.35 474.29 369.59 485.41 369.59 485.41 365.13 474.29 365.13 474.29 358.77 486.89 358.77"/><path class="cls-11" d="M1077.67,702.52c5.87,0,10.13-3.95,10.13-9.51s-4.26-9.51-10.13-9.51-10.16,4-10.16,9.51,4.29,9.51,10.16,9.51Zm0-4.39c-2.68,0-4.74-1.92-4.74-5.12s2.06-5.11,4.74-5.11,4.71,1.92,4.71,5.11S1080.35,698.13,1077.67,698.13Z" transform="translate(-579.07 -323.9)"/><path class="cls-11" d="M1104.62,683.78v9.13c0,3.4-1.78,5-4.25,5s-3.75-1.38-3.75-4.47v-9.64h-5.35v10.43c0,5.7,3.26,8.31,7.9,8.31a7.49,7.49,0,0,0,5.73-2.47v2.2H1110V683.78Z" transform="translate(-579.07 -323.9)"/><path class="cls-11" d="M1126.19,683.5a8.11,8.11,0,0,0-6.12,2.44v-2.16H1115v18.47h5.35v-9.14c0-3.39,1.86-5,4.43-5,2.37,0,3.75,1.37,3.75,4.36v9.75h5.35V691.67C1133.84,686,1130.55,683.5,1126.19,683.5Z" transform="translate(-579.07 -323.9)"/><path class="cls-11" d="M1152.35,676.77v9a7.1,7.1,0,0,0-5.53-2.23c-5.22,0-9.23,3.71-9.23,9.51s4,9.51,9.23,9.51a7.12,7.12,0,0,0,5.77-2.4v2.13h5.12V676.77Zm-4.6,21.36c-2.68,0-4.74-1.92-4.74-5.12s2.06-5.11,4.74-5.11,4.7,1.92,4.7,5.11S1150.39,698.13,1147.75,698.13Z" transform="translate(-579.07 -323.9)"/></svg>