<svg width="23" height="22" viewBox="0 0 23 22" fill="none" xmlns="http://www.w3.org/2000/svg">
<path fill-rule="evenodd" clip-rule="evenodd" d="M8.12031 14.1741C11.2083 14.1741 13.7116 11.6708 13.7116 8.58277C13.7116 5.49478 11.2083 2.99147 8.12031 2.99147C5.03232 2.99147 2.52901 5.49478 2.52901 8.58277C2.52901 11.6708 5.03232 14.1741 8.12031 14.1741ZM8.12031 16.4485C12.4644 16.4485 15.986 12.9269 15.986 8.58277C15.986 4.23865 12.4644 0.717041 8.12031 0.717041C3.77618 0.717041 0.254578 4.23865 0.254578 8.58277C0.254578 12.9269 3.77618 16.4485 8.12031 16.4485Z" fill="#349B7E"/>
<path fill-rule="evenodd" clip-rule="evenodd" d="M20.2911 20.9311L12.7097 14.3921L14.1952 12.6698L21.7766 19.2088C22.2522 19.619 22.3052 20.3371 21.895 20.8127C21.4848 21.2883 20.7667 21.3413 20.2911 20.9311Z" fill="#349B7E"/>
</svg>
