<svg xmlns="http://www.w3.org/2000/svg" enable-background="new 0 0 500 500" viewBox="0 0 500 500" id="checklist"><path d="M299.6,80h-99.2c-8.7,0-15.9,7.1-15.9,15.9v8.4h-27.2c-16.6,0-30.1,13.4-30.1,29.9V390c0,16.5,13.5,29.9,30.1,29.9h185.3
		c16.6,0,30.1-13.4,30.1-29.9V134.3c0-16.5-13.5-29.9-30.1-29.9h-27.2v-8.4C315.5,87.2,308.4,80,299.6,80z M200.4,96.2h98.9l0.1,8.1
		h-0.1l0.3,27l-98.9,0.3v-27.4h-0.3L200.4,96.2z M342.7,120.5c7.7,0,13.9,6.2,13.9,13.8V390c0,7.6-6.2,13.8-13.9,13.8H157.3
		c-7.7,0-13.9-6.2-13.9-13.8V134.3c0-7.6,6.2-13.8,13.9-13.8h27.2v11.2c0,8.8,7.1,15.9,15.9,15.9h99.2c8.7,0,15.9-7.1,15.9-15.9
		v-11.2H342.7z"></path><path d="M325.4 275.5H311c-9.1 0-16.5 7.4-16.5 16.5v14.3c0 9.1 7.4 16.5 16.5 16.5h14.3c9.1 0 16.5-7.4 16.5-16.5V292C341.9 282.9 334.5 275.5 325.4 275.5zM325.7 299.2l0-7.1h0V299.2zM310.7 306.3l.2-11.1.1-3.5 14.6.3v14.3c0 .2-.1.3-.3.3 0 0 0 0 0 0L310.7 306.3zM311 291.7L311 291.7l1 0L311 291.7zM310.8 302.7l-.1 3.6h0L310.8 302.7zM325.4 335.3H311c-9.1 0-16.5 7.4-16.5 16.5v14.3c0 9.1 7.4 16.5 16.5 16.5h14.3c9.1 0 16.5-7.4 16.5-16.5v-14.3C341.9 342.7 334.5 335.3 325.4 335.3zM325.7 359l0-7.1h0V359zM310.7 366.1L311 355l.1-3.5 14.6.3v14.3c0 .2-.1.3-.3.3 0 0 0 0 0 0L310.7 366.1zM311 351.5L311 351.5l1 0L311 351.5zM310.8 362.5l-.1 3.6h0L310.8 362.5zM186.5 191.6h90c4.1 0 7.4-3.3 7.4-7.4v-2.5c0-4.1-3.3-7.4-7.4-7.4h-90c-4.1 0-7.4 3.3-7.4 7.4v2.5C179.1 188.3 182.4 191.6 186.5 191.6zM304.4 157.7C304.4 157.7 304.4 157.8 304.4 157.7c.1 0 .1 0 .1 0C304.4 157.8 304.4 157.7 304.4 157.7z"></path><path d="M308.7 159.8C308.7 159.8 308.7 159.8 308.7 159.8c0 0 0-.1-.1-.1v0c0 0 0 0 0 0-.1-.1 0-.1-.1-.2-.1-.1-.2-.1-.2-.2 0 0 0 0 0 0-.1-.1-.2-.2-.3-.3.1.1.2.2.3.2-.2-.2-.5-.4-.8-.6-.2-.1-.2-.2-.4-.3-.1 0-.2 0-.3-.1 0 0 0 0 0 0-.6-.3-1.4-.5-2.3-.5-1.3-.1-2.8.1-4.9.9-.1 0-.1.1-.2.2-.8.4-1.5.8-2.1 1.3-.2.2-.3.4-.4.5-.4.5-.8.9-1 1.4 0 .1-.1.1-.2.2-.1.2 0 .3-.1.5-.2.6-.3 1.2-.3 1.8 0 .2 0 .4 0 .7 0 .8.1 1.5.3 2.2.1.2.1.4.2.6.1.4.2.8.3 1.1.2.6.4 1 .4 1.1l17.7 21.8c.7.8 1.5 1.4 2.5 1.8.3.1.6.1.9.2.5.1 1.1.4 1.7.4.2 0 .4 0 .5 0 .6 0 1.1-.3 1.6-.5.4-.2.9-.2 1.3-.4.9-.6 1.7-1.3 2.3-2.3l19.8-33.7c0 0 .1-.6.3-1.1 0-.1 0-.1.1-.3 0-.2 0-.5 0-.7.2-1.7.3-4.2-1-6.4-.7-1.2-1.9-2.4-3.6-3.2-.1 0-.2 0-.3-.1-.9-.4-1.8-.6-2.5-.7-.3 0-.5 0-.7 0-.7 0-1.4.1-2 .3-.1 0-.2 0-.4.1-.1 0-.1.1-.2.1-.6.2-1.1.6-1.5.9-.2.1-.3.3-.4.4-.3.3-.5.5-.7.8-.2.2-.3.3-.4.5-.1.2-.2.3-.3.5-.2.4-.4.7-.4.7l-10.1 17.3-2.6 4.5-9-11.1C308.9 160.1 308.8 159.9 308.7 159.8zM295.6 162.7c0-.1 0-.3.1-.4 0-.1.1-.1.1-.2C295.7 162.3 295.7 162.5 295.6 162.7zM334.5 145.5c.1 0 .2 0 .2 0-.1 0-.2.1-.3.1C334.4 145.5 334.5 145.5 334.5 145.5zM319.6 194.5c-.2 0-.3 0-.5 0-.5 0-.9-.2-1.4-.3C318.4 194.3 319 194.5 319.6 194.5zM317.9 171.1L317.9 171.1l-.8-1L317.9 171.1zM277 234.5h-90c-4.1 0-7.4 3.3-7.4 7.4v2.5c0 4.1 3.3 7.4 7.4 7.4h90c4.1 0 7.4-3.3 7.4-7.4v-2.5C284.4 237.8 281.1 234.5 277 234.5zM277 291.8h-90c-4.1 0-7.4 3.3-7.4 7.4v2.5c0 4.1 3.3 7.4 7.4 7.4h90c4.1 0 7.4-3.3 7.4-7.4v-2.5C284.4 295.2 281.1 291.8 277 291.8zM275.6 351.2h-90c-4.1 0-7.4 3.3-7.4 7.4v2.5c0 4.1 3.3 7.4 7.4 7.4h90c4.1 0 7.4-3.3 7.4-7.4v-2.5C283 354.5 279.7 351.2 275.6 351.2zM304.9 217.9c0 0 .1 0 .1 0 0 0 0 0 0 0C304.9 217.9 304.9 217.9 304.9 217.9zM340.9 206.1c-.1 0-.2 0-.3-.1-.9-.4-1.8-.6-2.5-.7-.3 0-.5 0-.7 0-.7 0-1.4.1-2 .3-.1 0-.2 0-.4.1-.1 0-.1.1-.2.1-.6.3-1.1.6-1.5.9-.2.1-.3.3-.4.4-.3.3-.5.5-.7.8-.1.2-.3.3-.4.5-.1.2-.2.3-.3.5-.2.4-.4.7-.4.7L321 226.8l-2.6 4.5-9-11.1c0 0-.1-.2-.2-.3 0 0 0 0 0 0 0-.1-.1-.1-.1-.2v0c-.1-.1 0-.1-.1-.2-.1-.1-.2-.1-.2-.2 0 0 0 0 0 0-.1-.1-.2-.2-.3-.3.1.1.2.2.3.2-.2-.2-.5-.4-.8-.6-.2-.1-.2-.2-.4-.3-.1 0-.2 0-.3-.1 0 0 0 0 0 0-.6-.3-1.4-.4-2.3-.5-1.3-.1-2.8.1-4.9.9-.1 0-.1.1-.2.1-.8.4-1.5.8-2.1 1.3-.2.2-.3.4-.4.5-.4.5-.8.9-1 1.4 0 .1-.1.1-.2.2-.1.2 0 .3-.1.5-.2.6-.3 1.2-.3 1.8 0 .2 0 .4 0 .7 0 .8.1 1.5.3 2.2.1.2.1.4.2.6.1.4.2.8.3 1.1.2.6.4 1 .4 1.1l17.7 21.8c.7.8 1.5 1.4 2.5 1.8.3.1.6.1.9.2.5.1 1.1.4 1.7.4.2 0 .4 0 .5 0 .6 0 1.1-.3 1.6-.5.4-.1.9-.2 1.3-.4.9-.6 1.7-1.3 2.3-2.3l19.8-33.7c0 0 .1-.6.3-1.1 0-.1 0-.1.1-.3 0-.2 0-.5 0-.7.2-1.7.3-4.2-1-6.4C343.7 208.1 342.6 206.9 340.9 206.1zM296.1 222.9c0-.1 0-.3.1-.4 0-.1.1-.1.1-.2C296.2 222.5 296.2 222.7 296.1 222.9zM317.6 230.3l.8 1 0 0L317.6 230.3zM319.7 254.7c-.5 0-.9-.2-1.4-.3.6.1 1.3.3 1.9.3C320 254.7 319.8 254.7 319.7 254.7zM334.9 205.7c0 0 .1-.1.1-.1.1 0 .2 0 .2 0C335.1 205.7 335 205.7 334.9 205.7z"></path></svg>