<svg xmlns="http://www.w3.org/2000/svg" data-name="Layer 1" viewBox="0 0 512 512" id="delivery-box"><path d="M480.04 128.03a7.453 7.453 0 0 0-3.305-3.054l-81.442-46.52a7.49 7.49 0 0 0-2.166-1.237l-49.41-28.222a7.487 7.487 0 0 0-2.163-1.236L259.72 1.018a7.5 7.5 0 0 0-7.44 0L35.266 124.976A7.481 7.481 0 0 0 31 132.363v247.872a7.501 7.501 0 0 0 3.78 6.512l217.5 124.235a7.5 7.5 0 0 0 7.44 0l217.5-124.235a7.501 7.501 0 0 0 3.78-6.512V132.363a7.46 7.46 0 0 0-.96-4.332ZM375.319 84.323 172.94 199.92l-36.453-20.822L338.866 63.5ZM166 213.23v74.295l-37-21.042v-74.387Zm90-197.062 67.744 38.695L121.366 170.46l-67.744-38.694Zm-7 475.665L46 375.88V144.687l68 38.841v87.317a7.5 7.5 0 0 0 3.792 6.52l52 29.573a7.5 7.5 0 0 0 11.208-6.52v-78.62l68 38.841Zm7-244.47-67.938-38.806L390.44 92.959l67.939 38.806Zm210 128.518L264 491.262V260.068l202-115.381Z"></path><path d="M296.074 443.343a7.494 7.494 0 0 1-3.708-14.018l.044-.025a7.5 7.5 0 1 1 3.664 14.043zm27.411-15.651a7.5 7.5 0 0 1-3.705-14.026l.092-.051a7.5 7.5 0 1 1 7.396 13.048l-.091.052a7.464 7.464 0 0 1-3.692.977zm27.488-15.7a7.501 7.501 0 0 1-3.758-13.997l.091-.052a7.5 7.5 0 0 1 7.502 12.99l-.091.053a7.47 7.47 0 0 1-3.744 1.006zm27.486-15.7a7.501 7.501 0 0 1-3.757-13.997l.091-.052a7.5 7.5 0 0 1 7.502 12.99l-.091.052a7.47 7.47 0 0 1-3.745 1.006zm27.488-15.702a7.5 7.5 0 0 1-3.705-14.025l.091-.052a7.5 7.5 0 1 1 7.396 13.049l-.09.052a7.464 7.464 0 0 1-3.692.976zm27.514-15.721a7.515 7.515 0 1 1 7.51-7.554 7.58 7.58 0 0 1-3.717 6.524 7.498 7.498 0 0 1-3.793 1.03zm.01-31.351a7.5 7.5 0 0 1-7.5-7.5v-.105a7.5 7.5 0 0 1 15 0v.105a7.5 7.5 0 0 1-7.5 7.5zm0-31.4a7.5 7.5 0 0 1-7.5-7.5v-.105a7.5 7.5 0 0 1 15 0v.104a7.5 7.5 0 0 1-7.5 7.5zm0-31.402a7.5 7.5 0 0 1-7.5-7.5v-.104a7.5 7.5 0 0 1 15 0v.104a7.5 7.5 0 0 1-7.5 7.5zm0-31.4a7.5 7.5 0 0 1-7.5-7.5v-.105a7.5 7.5 0 0 1 15 0v.105a7.5 7.5 0 0 1-7.5 7.5zm0-31.426a7.479 7.479 0 0 1-7.5-7.476v-.05a7.5 7.5 0 1 1 7.5 7.526z"></path><path d="M296.355 443.113a7.478 7.478 0 0 1-7.5-7.475v-.05a7.5 7.5 0 1 1 7.5 7.525zm0-31.262a7.5 7.5 0 0 1-7.5-7.5v-.105a7.5 7.5 0 0 1 15 0v.105a7.5 7.5 0 0 1-7.5 7.5zm0-31.342a7.5 7.5 0 0 1-7.5-7.5v-.103a7.5 7.5 0 0 1 15 0v.103a7.5 7.5 0 0 1-7.5 7.5zm0-31.34a7.5 7.5 0 0 1-7.5-7.5v-.105a7.5 7.5 0 0 1 15 0v.104a7.5 7.5 0 0 1-7.5 7.5zm0-31.342a7.5 7.5 0 0 1-7.5-7.5v-.105a7.5 7.5 0 0 1 15 0v.105a7.5 7.5 0 0 1-7.5 7.5zm0-31.367a7.479 7.479 0 0 1-7.5-7.475v-.05a7.5 7.5 0 1 1 7.5 7.525zm137.096-78.58a7.52 7.52 0 1 1 3.71-.986l-.043.024a7.468 7.468 0 0 1-3.667.962zM323.49 270.69a7.5 7.5 0 0 1-3.705-14.026l.091-.051a7.5 7.5 0 1 1 7.396 13.048l-.09.052a7.464 7.464 0 0 1-3.692.977zm27.49-15.702a7.501 7.501 0 0 1-3.757-13.996l.091-.053a7.5 7.5 0 0 1 7.502 12.99l-.091.053a7.47 7.47 0 0 1-3.745 1.006zm27.49-15.703a7.501 7.501 0 0 1-3.757-13.996l.091-.052a7.5 7.5 0 0 1 7.502 12.99l-.091.053a7.47 7.47 0 0 1-3.744 1.005zm27.491-15.703a7.5 7.5 0 0 1-3.705-14.025l.092-.052a7.5 7.5 0 1 1 7.396 13.049l-.091.052a7.464 7.464 0 0 1-3.692.976z"></path><path d="M296.046 286.366a7.52 7.52 0 1 1 3.71-.987l-.043.025a7.468 7.468 0 0 1-3.667.962Z"></path></svg>