<svg width="254" height="62" viewBox="0 0 254 62" fill="none" xmlns="http://www.w3.org/2000/svg">
<path d="M17.496 35.712C18.776 35.712 19.8427 35.52 20.696 35.136C21.5493 34.752 22.296 34.1547 22.936 33.344L25.688 21.184L33.944 21.248L28.696 45.312C27.4587 51.1147 25.56 55.2107 23 57.6C20.44 60.032 16.8773 61.248 12.312 61.248C9.624 61.248 7.46933 60.416 5.848 58.752C4.22667 57.088 3.416 54.976 3.416 52.416C3.416 49.9413 4.14133 47.872 5.592 46.208C7.04267 44.5013 8.92 43.648 11.224 43.648C13.528 43.648 15.1493 44.0107 16.088 44.736C17.0267 45.4187 17.496 46.4853 17.496 47.936C17.496 48.2773 17.4533 48.6613 17.368 49.088C17.3253 49.5573 17.24 50.0267 17.112 50.496C16.3867 49.8987 15.7467 49.472 15.192 49.216C14.6373 48.96 13.9973 48.832 13.272 48.832C11.9493 48.832 10.8613 49.3013 10.008 50.24C9.19733 51.1787 8.792 52.3307 8.792 53.696C8.792 54.976 9.15467 56.0213 9.88 56.832C10.6053 57.6427 11.5867 58.048 12.824 58.048C14.5733 58.048 15.9173 57.4293 16.856 56.192C17.7947 54.9973 18.584 52.992 19.224 50.176L21.784 38.72C20.4613 39.4453 19.0533 40.0213 17.56 40.448C16.0667 40.832 14.872 41.024 13.976 41.024C9.45333 41.024 6.01867 39.6373 3.672 36.864C1.368 34.048 0.216 29.9733 0.216 24.64C0.216 21.4827 0.749333 18.4107 1.816 15.424C2.92533 12.3947 4.46133 9.74933 6.424 7.488C8.51467 5.056 10.9467 3.2 13.72 1.92C16.536 0.639997 19.5867 -3.8147e-06 22.872 -3.8147e-06C26.456 -3.8147e-06 29.336 0.767996 31.512 2.304C33.688 3.79733 34.776 5.888 34.776 8.576C34.776 10.496 34.392 11.968 33.624 12.992C32.856 13.9733 31.7467 14.464 30.296 14.464C29.4 14.464 28.5467 14.3147 27.736 14.016C26.968 13.7173 26.3493 13.312 25.88 12.8C26.6053 12.5867 27.2453 11.904 27.8 10.752C28.3973 9.6 28.696 8.53333 28.696 7.552C28.696 6.18666 28.312 5.09866 27.544 4.288C26.776 3.43467 25.688 3.008 24.28 3.008C22.4453 3.008 20.5893 3.776 18.712 5.312C16.8773 6.80533 15.2347 8.896 13.784 11.584C12.5893 13.6747 11.672 15.9147 11.032 18.304C10.392 20.6507 10.072 22.9333 10.072 25.152C10.072 28.4373 10.712 31.0187 11.992 32.896C13.3147 34.7733 15.1493 35.712 17.496 35.712ZM59.488 21.568C59.488 25.1093 58.0373 28.2027 55.136 30.848C52.2347 33.4507 48.7787 34.8587 44.768 35.072C44.7253 35.7973 44.6827 36.352 44.64 36.736C44.64 37.0773 44.64 37.376 44.64 37.632C44.64 39.5947 44.96 40.9813 45.6 41.792C46.2827 42.6027 47.4987 43.008 49.248 43.008C51.2533 43.008 53.088 42.56 54.752 41.664C56.4587 40.7253 58.4 39.0187 60.576 36.544H62.752C60.2773 40.5547 57.5893 43.5413 54.688 45.504C51.7867 47.424 48.608 48.384 45.152 48.384C41.8667 48.384 39.3707 47.5307 37.664 45.824C36 44.1173 35.168 41.5787 35.168 38.208C35.168 35.776 35.552 33.1947 36.32 30.464C37.088 27.7333 38.112 25.3013 39.392 23.168C40.9707 20.608 42.848 18.688 45.024 17.408C47.2427 16.0853 49.7173 15.424 52.448 15.424C54.7947 15.424 56.544 15.936 57.696 16.96C58.8907 17.9413 59.488 19.4773 59.488 21.568ZM52.96 18.816C51.5093 18.816 50.0373 20.1173 48.544 22.72C47.0933 25.28 46.0053 28.3733 45.28 32C47.7547 31.8293 49.9093 30.6987 51.744 28.608C53.6213 26.4747 54.56 24.0853 54.56 21.44C54.56 20.544 54.432 19.8827 54.176 19.456C53.92 19.0293 53.5147 18.816 52.96 18.816ZM76.427 41.152C76.427 40.384 76.5123 39.424 76.683 38.272C76.8963 37.12 77.3017 35.2853 77.899 32.768C78.4963 30.336 78.8803 28.5867 79.051 27.52C79.2217 26.4533 79.307 25.5573 79.307 24.832C79.307 23.7653 79.115 22.9547 78.731 22.4C78.347 21.8453 77.771 21.568 77.003 21.568C75.979 21.568 75.019 22.1013 74.123 23.168C73.2697 24.192 72.5657 25.6213 72.011 27.456L67.659 48H58.443L65.227 16H74.443L73.739 19.328C74.8057 18.1333 75.9577 17.2373 77.195 16.64C78.4323 16.0427 79.7763 15.744 81.227 15.744C83.4883 15.744 85.2377 16.3627 86.475 17.6C87.7123 18.8373 88.331 20.6293 88.331 22.976C88.331 23.9573 88.203 25.1307 87.947 26.496C87.7337 27.8187 87.2857 29.8667 86.603 32.64C86.0483 34.816 85.6857 36.352 85.515 37.248C85.3443 38.144 85.259 38.8907 85.259 39.488C85.259 40.384 85.4723 41.0667 85.899 41.536C86.3257 41.9627 86.9657 42.176 87.819 42.176C88.8857 42.176 89.803 41.8133 90.571 41.088C91.339 40.3627 92.2137 38.848 93.195 36.544H95.883C94.5177 40.512 92.8537 43.4773 90.891 45.44C88.971 47.4027 86.667 48.384 83.979 48.384C81.5897 48.384 79.7337 47.744 78.411 46.464C77.0883 45.1413 76.427 43.3707 76.427 41.152ZM108.996 7.488C108.996 8.896 108.484 10.0907 107.46 11.072C106.478 12.0533 105.284 12.544 103.876 12.544C102.468 12.544 101.273 12.0533 100.292 11.072C99.3102 10.0907 98.8195 8.896 98.8195 7.488C98.8195 6.08 99.3102 4.88533 100.292 3.904C101.273 2.88 102.468 2.368 103.876 2.368C105.284 2.368 106.478 2.88 107.46 3.904C108.484 4.88533 108.996 6.08 108.996 7.488ZM92.6755 40.704C92.6755 40.1493 92.7182 39.5307 92.8035 38.848C92.8888 38.1227 93.0168 37.3547 93.1875 36.544L97.5395 16H106.756L102.148 37.76C102.062 38.144 101.998 38.5067 101.956 38.848C101.913 39.1467 101.892 39.4667 101.892 39.808C101.892 40.6613 102.084 41.28 102.468 41.664C102.894 42.0053 103.577 42.176 104.516 42.176C105.71 42.176 106.841 41.664 107.908 40.64C108.974 39.5733 109.764 38.208 110.276 36.544H112.964C111.598 40.4267 109.764 43.3707 107.46 45.376C105.156 47.3813 102.51 48.384 99.5235 48.384C97.3902 48.384 95.7048 47.7227 94.4675 46.4C93.2728 45.0347 92.6755 43.136 92.6755 40.704ZM133.738 21.568C133.738 25.1093 132.287 28.2027 129.386 30.848C126.485 33.4507 123.029 34.8587 119.018 35.072C118.975 35.7973 118.933 36.352 118.89 36.736C118.89 37.0773 118.89 37.376 118.89 37.632C118.89 39.5947 119.21 40.9813 119.85 41.792C120.533 42.6027 121.749 43.008 123.498 43.008C125.503 43.008 127.338 42.56 129.002 41.664C130.709 40.7253 132.65 39.0187 134.826 36.544H137.002C134.527 40.5547 131.839 43.5413 128.938 45.504C126.037 47.424 122.858 48.384 119.402 48.384C116.117 48.384 113.621 47.5307 111.914 45.824C110.25 44.1173 109.418 41.5787 109.418 38.208C109.418 35.776 109.802 33.1947 110.57 30.464C111.338 27.7333 112.362 25.3013 113.642 23.168C115.221 20.608 117.098 18.688 119.274 17.408C121.493 16.0853 123.967 15.424 126.698 15.424C129.045 15.424 130.794 15.936 131.946 16.96C133.141 17.9413 133.738 19.4773 133.738 21.568ZM127.21 18.816C125.759 18.816 124.287 20.1173 122.794 22.72C121.343 25.28 120.255 28.3733 119.53 32C122.005 31.8293 124.159 30.6987 125.994 28.608C127.871 26.4747 128.81 24.0853 128.81 21.44C128.81 20.544 128.682 19.8827 128.426 19.456C128.17 19.0293 127.765 18.816 127.21 18.816ZM146.653 32.896C146.653 36.4373 147.271 38.9973 148.509 40.576C149.746 42.112 151.687 42.88 154.333 42.88C156.765 42.88 159.069 42.3253 161.245 41.216C163.463 40.064 165.319 38.4853 166.812 36.48L168.285 37.12C166.877 40.7467 164.423 43.648 160.925 45.824C157.469 47.9573 153.842 49.024 150.045 49.024C145.095 49.024 141.511 47.7867 139.293 45.312C137.117 42.7947 136.029 38.784 136.029 33.28C136.029 29.7387 136.477 26.048 137.373 22.208C138.269 18.368 139.506 14.9333 141.085 11.904C143.133 8.02133 145.607 5.07733 148.509 3.072C151.453 1.024 154.738 -3.8147e-06 158.365 -3.8147e-06C161.778 -3.8147e-06 164.402 0.746663 166.237 2.24C168.114 3.69066 169.053 5.80266 169.053 8.576C169.053 10.496 168.669 11.968 167.901 12.992C167.133 13.9733 166.023 14.464 164.573 14.464C163.847 14.464 163.165 14.336 162.525 14.08C161.927 13.7813 161.394 13.3547 160.925 12.8C161.693 12.416 162.375 11.648 162.973 10.496C163.57 9.30133 163.869 8.10667 163.869 6.912C163.869 5.67467 163.527 4.71467 162.845 4.032C162.162 3.34933 161.202 3.008 159.965 3.008C158.087 3.008 156.231 4.16 154.397 6.464C152.562 8.72533 150.962 11.8613 149.597 15.872C148.658 18.6027 147.933 21.4613 147.421 24.448C146.909 27.392 146.653 30.208 146.653 32.896ZM187.425 18.944V19.392L188.129 16H197.345L192.737 37.76C192.652 38.144 192.588 38.5067 192.545 38.848C192.502 39.1467 192.481 39.4667 192.481 39.808C192.481 40.7467 192.694 41.4507 193.121 41.92C193.548 42.3467 194.209 42.56 195.105 42.56C196.214 42.56 197.217 42.048 198.113 41.024C199.009 39.9573 199.734 38.464 200.289 36.544H202.977C201.612 40.4693 199.841 43.4347 197.665 45.44C195.489 47.4027 192.972 48.384 190.113 48.384C188.278 48.384 186.806 47.872 185.697 46.848C184.63 45.824 184.012 44.3733 183.841 42.496C182.518 44.4587 181.046 45.9307 179.425 46.912C177.846 47.8933 176.14 48.384 174.305 48.384C171.66 48.384 169.569 47.488 168.033 45.696C166.54 43.904 165.793 41.3653 165.793 38.08C165.793 35.6907 166.156 33.1947 166.881 30.592C167.606 27.9893 168.609 25.6213 169.889 23.488C171.468 20.9707 173.302 19.0507 175.393 17.728C177.484 16.3627 179.766 15.68 182.241 15.68C183.905 15.68 185.185 15.9787 186.081 16.576C186.977 17.1307 187.425 17.92 187.425 18.944ZM186.849 22.08C186.849 21.44 186.614 20.8853 186.145 20.416C185.676 19.904 185.036 19.648 184.225 19.648C181.878 19.648 179.788 21.6107 177.953 25.536C176.161 29.4613 175.265 33.344 175.265 37.184C175.265 38.848 175.5 40.1067 175.969 40.96C176.438 41.7707 177.27 42.176 178.465 42.176C179.574 42.176 180.641 41.6427 181.665 40.576C182.732 39.5093 183.436 38.1653 183.777 36.544L186.849 22.08ZM206.909 48H197.693L204.477 16H213.693L212.861 19.968C214.738 18.3893 216.21 17.344 217.277 16.832C218.386 16.2773 219.496 16 220.605 16C221.928 16 222.994 16.4693 223.805 17.408C224.616 18.304 225.021 19.4347 225.021 20.8C225.021 22.1227 224.594 23.232 223.741 24.128C222.888 25.024 221.778 25.472 220.413 25.472C219.688 25.472 219.112 25.3013 218.685 24.96C218.301 24.6187 218.024 23.9147 217.853 22.848C217.725 22.1653 217.576 21.7387 217.405 21.568C217.234 21.3547 217 21.248 216.701 21.248C215.976 21.248 215.293 21.3973 214.653 21.696C214.013 21.9947 213.138 22.656 212.029 23.68L206.909 48ZM226.428 16H228.54L230.46 7.168L239.932 5.888L237.756 16H241.596L241.083 18.56H237.244L233.148 37.76C233.062 38.144 232.998 38.5067 232.956 38.848C232.913 39.1467 232.892 39.4667 232.892 39.808C232.892 40.6613 233.084 41.28 233.468 41.664C233.894 42.0053 234.577 42.176 235.516 42.176C236.71 42.176 237.841 41.664 238.908 40.64C239.974 39.5733 240.764 38.208 241.276 36.544H243.964C242.598 40.4267 240.764 43.3707 238.46 45.376C236.156 47.3813 233.51 48.384 230.524 48.384C228.39 48.384 226.705 47.7227 225.468 46.4C224.273 45.0347 223.675 43.136 223.675 40.704C223.675 40.1493 223.718 39.5307 223.803 38.848C223.889 38.1227 224.017 37.3547 224.188 36.544L228.028 18.56H225.916L226.428 16ZM253.41 43.2C253.41 44.608 252.898 45.8027 251.874 46.784C250.893 47.7653 249.698 48.256 248.29 48.256C246.882 48.256 245.687 47.7653 244.706 46.784C243.725 45.8027 243.234 44.608 243.234 43.2C243.234 41.792 243.725 40.5973 244.706 39.616C245.687 38.592 246.882 38.08 248.29 38.08C249.698 38.08 250.893 38.592 251.874 39.616C252.898 40.5973 253.41 41.792 253.41 43.2Z" fill="#349B7E"/>
</svg>
